HIERARCHY
ROOT hip
{
	OFFSET -0.864981 4.043976 -2.745554
	CHANNELS 6 Xposition Yposition Zposition Xrotation Yrotation Zrotation
	JOINT abdomen
	{
		OFFSET 0.006265 -5.260545 1.476358
		CHANNELS 6 Xposition Yposition Zposition Xrotation Yrotation Zrotation
		JOINT chest
		{
			OFFSET 0.000000 0.408822 5.038101
			CHANNELS 3 Xrotation Yrotation Zrotation
			JOINT neck
			{
				OFFSET 0.000000 0.295671 5.933952
				CHANNELS 6 Xposition Yposition Zposition Xrotation Yrotation Zrotation
				JOINT head
				{
					OFFSET 0.000000 -0.000000 3.915264
					CHANNELS 3 Xrotation Yrotation Zrotation
					End Site
					{
						OFFSET 0.000000 0.502962 19.049229
					}
				}
			}
			JOINT rCollar
			{
				OFFSET -1.650733 0.653657 5.371155
				CHANNELS 6 Xposition Yposition Zposition Xrotation Yrotation Zrotation
				JOINT rShldr
				{
					OFFSET -7.797990 0.032507 0.258621
					CHANNELS 6 Xposition Yposition Zposition Xrotation Yrotation Zrotation
					JOINT rForeArm
					{
						OFFSET -8.142947 0.000000 0.263153
						CHANNELS 3 Xrotation Yrotation Zrotation
						JOINT rHand
						{
							OFFSET -9.471985 0.000000 -0.180000
							CHANNELS 3 Xrotation Yrotation Zrotation
							End Site
							{
								OFFSET -7.870861 -0.751105 0.069523
							}
						}
					}
				}
			}
			JOINT lCollar
			{
				OFFSET 1.564497 0.510199 5.311192
				CHANNELS 6 Xposition Yposition Zposition Xrotation Yrotation Zrotation
				JOINT lShldr
				{
					OFFSET 8.424187 0.129074 0.847660
					CHANNELS 6 Xposition Yposition Zposition Xrotation Yrotation Zrotation
					JOINT lForeArm
					{
						OFFSET 8.508548 0.000000 0.000000
						CHANNELS 3 Xrotation Yrotation Zrotation
						JOINT lHand
						{
							OFFSET 8.057705 0.271201 0.000000
							CHANNELS 3 Xrotation Yrotation Zrotation
							End Site
							{
								OFFSET 7.000000 0.000000 0.000000
							}
						}
					}
				}
			}
		}
	}
	JOINT rThigh
	{
		OFFSET -4.797614 -3.382042 -0.505213
		CHANNELS 6 Xposition Yposition Zposition Xrotation Yrotation Zrotation
		JOINT rShin
		{
			OFFSET -2.660109 -1.012204 -13.019398
			CHANNELS 3 Xrotation Yrotation Zrotation
			JOINT rFoot
			{
				OFFSET 1.524949 0.822758 -13.881804
				CHANNELS 3 Xrotation Yrotation Zrotation
				End Site
				{
					OFFSET -0.945976 -12.544785 -1.455639
				}
			}
		}
	}
	JOINT lThigh
	{
		OFFSET 3.818079 -3.598045 -0.478729
		CHANNELS 6 Xposition Yposition Zposition Xrotation Yrotation Zrotation
		JOINT lShin
		{
			OFFSET 1.895622 0.273124 -13.072363
			CHANNELS 3 Xrotation Yrotation Zrotation
			JOINT lFoot
			{
				OFFSET -0.039762 -0.919454 -13.658133
				CHANNELS 3 Xrotation Yrotation Zrotation
				End Site
				{
					OFFSET 0.593693 -11.863776 -1.189445
				}
			}
		}
	}
}
MOTION
Frames: 1
Frame Time: 0.016667
-0.864981 4.043977 28.938713 -0.000001 0.000000 -0.000000 0.006265 -5.260545 1.476359 0.000000 0.000000 -0.000000 0.000000 0.000000 0.000000 -0.000000 0.295671 5.933950 -0.000000 -0.000000 -0.000000 -0.000000 0.000000 -0.000000 -1.650733 0.653657 5.371154 -0.000000 0.000001 0.000000 -7.654370 0.135806 1.536747 -0.000001 -77.397081 0.001096 -0.000000 -0.000002 -0.000000 84.364031 11.659098 12.858458 1.564497 0.510199 5.311188 -0.000000 -0.000001 -0.000000 8.041828 1.279411 0.457781 -0.000002 74.416154 -0.000874 -0.000000 0.000001 0.000000 77.620783 -12.744165 -15.810662 -4.797614 -3.382042 -0.505213 -3.013843 0.000241 -0.000002 -0.069035 12.090868 0.646132 3.832228 -0.015748 0.821320 3.818079 -3.598045 -0.961494 15.863550 -0.000806 0.000182 -0.000001 -0.000001 0.000000 0.000001 -0.000012 -0.000002 
